<svg width="186" height="183" viewBox="0 0 156 153" fill="none" xmlns="http://www.w3.org/2000/svg">
<path d="M43.7 115.4C51.7 134.1 70.3 147.3 91.9 147.3C83.9 128.6 65.3 115.4 43.7 115.4Z" fill="#3EAE64"/>
<path d="M131.2 81.8C131.2 103.5 113.6 121.1 91.9 121.1C70.2 121.1 52.6 103.5 52.6 81.8C52.6 60.1 70.2 42.5 91.9 42.5C113.6 42.5 131.2 60.1 131.2 81.8Z" fill="#FBB911"/>
<path d="M91.9 147.3C107.8 147.3 121.5 137.9 127.7 124.2C111.8 124.3 98.1 133.7 91.9 147.3Z" fill="#3EAE64"/>
<path d="M111.5 81.8C111.5 92.6 102.7 101.5 91.8 101.5C80.9 101.5 72.1 92.7 72.1 81.8C72.1 70.9 81 62.2 91.9 62.2C102.7 62.2 111.5 71 111.5 81.8Z" fill="#184190"/>
</svg>
