<svg width="49" height="57" viewBox="0 0 49 57" fill="none" xmlns="http://www.w3.org/2000/svg">
<path d="M0 39.6564C4.38902 49.8492 14.6069 57 26.508 57C22.119 46.8072 11.9011 39.6564 0 39.6564Z" fill="#464646"/>
<path d="M26.5078 57.0001C35.2511 57.0001 42.7841 51.8589 46.1784 44.4603C37.4352 44.4603 29.9022 49.6015 26.5078 57.0001Z" fill="#464646"/>
<path d="M26.5085 0C14.5795 0 4.91113 9.56653 4.91113 21.3767C4.91113 33.1869 14.5795 42.7534 26.5154 42.7534C38.4513 42.7534 48.1197 33.1869 48.1197 21.3767C48.1197 9.56653 38.4444 0 26.5085 0ZM26.5085 32.0651C20.5405 32.0651 15.7063 27.2818 15.7063 21.3767C15.7063 15.4716 20.5405 10.6884 26.5085 10.6884C32.4764 10.6884 37.3106 15.4716 37.3106 21.3767C37.3106 27.2818 32.4764 32.0651 26.5085 32.0651Z" fill="#464646"/>
</svg>
