<svg width="32" height="32" viewBox="0 0 32 32" fill="none" xmlns="http://www.w3.org/2000/svg">
<path d="M16.651 22.285L10.456 16L16.652 9.71496C17.043 9.32096 17.043 8.68096 16.652 8.28696C16.261 7.89296 15.628 7.89296 15.238 8.28695L8.339 15.286C7.964 15.665 7.962 16.334 8.339 16.715L15.239 23.714C15.629 24.108 16.263 24.108 16.653 23.714C17.042 23.319 17.042 22.679 16.651 22.285Z" fill="#003C96"/>
<path d="M15.338 15.286C14.963 15.665 14.961 16.334 15.338 16.715L22.237 23.714C22.628 24.108 23.261 24.108 23.651 23.714C24.042 23.32 24.042 22.68 23.651 22.286L17.456 16L23.651 9.71496C24.042 9.32096 24.042 8.68096 23.651 8.28696C23.26 7.89296 22.627 7.89296 22.237 8.28695L15.338 15.286Z" fill="#003C96"/>
</svg>
