<svg width="16" height="18" viewBox="0 0 16 18" fill="none" xmlns="http://www.w3.org/2000/svg">
<path d="M8.65106 15.285L2.45606 8.99995L8.65206 2.71496C9.04306 2.32096 9.04306 1.68096 8.65206 1.28696C8.26106 0.892955 7.62806 0.892955 7.23806 1.28695L0.339062 8.28596C-0.0359376 8.66496 -0.0379375 9.33396 0.339062 9.71495L7.23906 16.714C7.62906 17.108 8.26306 17.108 8.65306 16.714C9.04206 16.319 9.04206 15.679 8.65106 15.285Z" fill="#121313"/>
<path d="M7.33808 8.28596C6.96308 8.66496 6.96108 9.33396 7.33808 9.71495L14.2371 16.714C14.6281 17.108 15.2611 17.108 15.6511 16.714C16.0421 16.32 16.0421 15.68 15.6511 15.286L9.45609 8.99995L15.6511 2.71496C16.0421 2.32096 16.0421 1.68096 15.6511 1.28696C15.2601 0.892955 14.6271 0.892955 14.2371 1.28695L7.33808 8.28596Z" fill="#121313"/>
</svg>
