<svg width="336" height="103" viewBox="0 0 336 103" fill="none" xmlns="http://www.w3.org/2000/svg">
<path d="M37.6313 65.012C42.1356 75.5649 52.6229 82.9643 64.8487 82.9643C60.3444 72.4114 49.8515 65.012 37.6313 65.012Z" fill="#3EAE64"/>
<path d="M87.0256 46.0856C87.0256 58.3053 77.0971 68.2105 64.8487 68.2105C52.6004 68.2105 42.6719 58.3053 42.6719 46.0856C42.6719 33.8659 52.6004 23.9607 64.8487 23.9607C77.0971 23.9607 87.0256 33.8659 87.0256 46.0856Z" fill="#FBB911"/>
<path d="M64.8486 82.9643C73.8289 82.9643 81.5561 77.6428 85.0443 69.9844C76.0697 69.9844 68.3369 75.3058 64.8486 82.9643Z" fill="#3EAE64"/>
<path d="M75.9398 46.0856C75.9398 52.1954 70.9728 57.1509 64.8486 57.1509C58.7244 57.1509 53.7573 52.1954 53.7573 46.0856C53.7573 39.9758 58.7244 35.0203 64.8486 35.0203C70.9728 35.0203 75.9398 39.9758 75.9398 46.0856Z" fill="#184190"/>
<path d="M166.431 57.4268C166.431 54.645 163.671 53.4005 160.577 53.4005C155.853 53.4005 151.767 55.3883 150.519 60.5071C160.143 63.2833 166.431 61.2166 166.431 57.4268ZM150.316 66.4423C151.315 72.5691 156.18 74.5681 161.119 74.5681C164.387 74.5681 167.819 73.2955 169.93 71.3865L175.654 77.1303C172.233 80.9089 167.481 82.9642 160.978 82.9642C151.874 82.9642 140.895 77.6034 140.895 64.0209C140.895 50.4385 151.467 45.0776 160.448 45.0776C171.804 45.0776 176.506 50.3991 176.506 56.3682C176.506 66.127 164.077 70.6376 150.316 66.4423ZM105.64 46.0856L105.364 59.561C105.296 65.0177 105.099 67.7094 104.308 70.8009C103.586 73.7573 102.203 74.5963 100.024 74.5963C99.3018 74.5963 98.6414 74.5287 98.1108 74.3316V81.9563C98.8333 82.3504 100.024 82.5475 101.605 82.5475C108.13 82.3504 111.291 79.2814 112.871 73.7573C113.989 69.8154 114.186 66.7915 114.384 62.2527L114.592 54.9773H126.113V81.9563H135.386V46.0856H105.64ZM284.167 64.0209C284.167 61.0815 283.23 58.6432 281.289 56.7736C279.42 54.8365 277.044 53.9017 274.171 53.9017C271.292 53.9017 268.922 54.8365 267.053 56.7736C265.185 58.6375 264.248 61.0815 264.248 64.0209C264.248 66.9604 265.185 69.3987 267.053 71.3415C268.922 73.2054 271.298 74.1402 274.171 74.1402C277.05 74.1402 279.42 73.2054 281.289 71.3415C283.23 69.4044 284.167 66.966 284.167 64.0209ZM298.402 74.1571V81.7817C296.822 82.5701 294.846 82.9642 292.538 82.9642C287.718 82.9642 285.291 80.8694 284.32 77.502L284.167 77.7272C281.362 81.2411 277.479 82.9642 272.444 82.9642C267.624 82.9642 263.526 81.1735 260.071 77.5133C256.69 73.853 254.963 69.3368 254.963 64.0266C254.963 58.7164 256.69 54.2677 260.071 50.6075C263.526 46.9472 267.624 45.0833 272.444 45.0833C277.259 45.0833 281.018 46.66 283.789 49.8754V46.0912H293.068V71.4654C293.068 73.6334 294.056 74.754 296.032 74.754C296.952 74.7483 297.742 74.5513 298.402 74.1571ZM221.181 54.9829H232.73V81.9619H242.009V54.9829H253.417V46.0856H221.181V54.9829ZM207.539 46.0856H216.818V81.9563H207.539V67.9853H191.339V81.9563H182.06V46.0856H191.339V59.3076H207.539V46.0856Z" fill="#184190"/>
</svg>
