<svg width="254" height="57" viewBox="0 0 254 57" fill="none" xmlns="http://www.w3.org/2000/svg">
<g clip-path="url(#clip0_258_5322)">
<path d="M0 39.6564C4.38902 49.8492 14.6069 57 26.508 57C22.119 46.8072 11.9011 39.6564 0 39.6564Z" fill="#464646"/>
<path d="M26.5078 57C35.2511 57 42.7841 51.8588 46.1784 44.4603C37.4352 44.4603 29.9022 49.6014 26.5078 57Z" fill="#464646"/>
<path d="M26.5085 0C14.5795 0 4.91113 9.56653 4.91113 21.3767C4.91113 33.1869 14.5795 42.7534 26.5154 42.7534C38.4513 42.7534 48.1197 33.1869 48.1197 21.3767C48.1197 9.56653 38.4444 0 26.5085 0ZM26.5085 32.0651C20.5405 32.0651 15.7063 27.2818 15.7063 21.3767C15.7063 15.4716 20.5405 10.6884 26.5085 10.6884C32.4764 10.6884 37.3106 15.4716 37.3106 21.3767C37.3106 27.2818 32.4764 32.0651 26.5085 32.0651Z" fill="#464646"/>
<path d="M125.459 32.3335C125.459 29.6425 122.774 28.4449 119.762 28.4449C115.158 28.4449 111.179 30.3651 109.962 35.3136C119.338 37.9908 125.459 35.9949 125.459 32.3335ZM109.767 41.0397C110.741 46.9586 115.478 48.8925 120.291 48.8925C123.477 48.8925 126.815 47.6606 128.867 45.8161L134.439 51.3633C131.107 55.011 126.481 57 120.145 57C111.276 57 100.586 51.8244 100.586 38.6997C100.586 25.575 110.88 20.3994 119.63 20.3994C130.69 20.3994 135.273 25.5406 135.273 31.308C135.273 40.73 123.164 45.0866 109.767 41.0328M66.2454 21.3698L65.9742 34.3913C65.9116 39.6632 65.7168 42.2648 64.9447 45.2518C64.2422 48.1079 62.8928 48.9201 60.7713 48.9201C60.0688 48.9201 59.4219 48.8581 58.9072 48.6654V56.0296C59.6097 56.4081 60.7713 56.6008 62.3085 56.6008C68.6591 56.4081 71.7404 53.4418 73.2846 48.1079C74.3766 44.2951 74.5644 41.377 74.7592 36.9929L74.9609 29.966H86.1804V56.0227H95.2158V21.3767H66.2315L66.2454 21.3698ZM240.137 38.6997C240.137 35.8573 239.226 33.5035 237.334 31.7003C235.512 29.8283 233.202 28.9267 230.399 28.9267C227.596 28.9267 225.287 29.8283 223.464 31.7003C221.642 33.5035 220.731 35.8573 220.731 38.6997C220.731 41.5421 221.642 43.8959 223.464 45.7679C225.287 47.5711 227.596 48.4727 230.399 48.4727C233.202 48.4727 235.512 47.5711 237.334 45.7679C239.226 43.8959 240.137 41.5421 240.137 38.6997ZM254.007 48.4865V55.8506C252.469 56.6146 250.543 56.9931 248.296 56.9931C243.601 56.9931 241.236 54.9697 240.29 51.7143L240.137 51.9346C237.403 55.3276 233.62 56.9931 228.716 56.9931C223.812 56.9931 220.028 55.2588 216.669 51.7281C213.379 48.1905 211.695 43.8271 211.695 38.6997C211.695 33.5723 213.379 29.2708 216.669 25.7402C220.028 22.2026 224.021 20.4063 228.716 20.4063C233.411 20.4063 237.063 21.9342 239.768 25.0313V21.3767H248.804V45.8918C248.804 47.9841 249.771 49.0646 251.69 49.0646C252.588 49.0646 253.36 48.8719 254 48.4934M178.788 29.9728H190.042V56.0296H199.078V29.9728H210.186V21.3767H178.788V29.9728ZM165.496 21.3767H174.531V56.0296H165.496V42.5332H149.72V56.0296H140.685V21.3767H149.72V34.1504H165.496V21.3767Z" fill="#464646"/>
</g>
<defs>
<clipPath id="clip0_258_5322">
<rect width="254" height="57" fill="white"/>
</clipPath>
</defs>
</svg>
