<svg width="33" height="33" viewBox="0 0 33 33" fill="none" xmlns="http://www.w3.org/2000/svg">
<path d="M24.8901 16.9392H21.5665V15.0869H24.8901V16.9392ZM24.8901 17.9975H21.5665V19.8498H24.8901V17.9975ZM24.8901 9.26576H21.5665V11.1179H24.8901V9.26576ZM24.8901 12.1764H21.5665V14.0285H24.8901V12.1764ZM24.8901 20.9081H21.5665V22.7604H24.8901V20.9081V20.9081ZM27.1856 24.5596C27.0907 25.11 26.4972 25.1232 26.1007 25.1418H18.7178V27.5231H17.2435L6.37793 25.4063V6.88704L17.3076 4.76758H18.7178V6.87644H25.8467C26.248 6.89495 26.6895 6.8632 27.0385 7.13043C27.283 7.52204 27.2593 8.01951 27.2759 8.4693L27.2664 22.2444C27.2545 23.0143 27.3305 23.8003 27.1856 24.5596ZM15.0832 20.4081C14.428 18.9263 13.761 17.4551 13.1081 15.9733C13.7538 14.5313 14.3901 13.084 15.0239 11.6366C14.485 11.6657 13.9461 11.7027 13.4096 11.7451C13.0084 12.8326 12.5407 13.891 12.2274 15.0155C11.9354 13.9545 11.5484 12.9331 11.1947 11.8985C10.6724 11.9303 10.1501 11.9647 9.62789 11.9991C10.1786 13.3539 10.765 14.69 11.2992 16.0527C10.6701 17.3757 10.0813 18.7173 9.47119 20.0482C9.99107 20.072 10.511 20.0958 11.0309 20.1038C11.4012 19.0507 11.8618 18.0373 12.1846 16.963C12.4743 18.1166 12.9656 19.183 13.3692 20.2863C13.9414 20.3314 14.5111 20.371 15.0832 20.4081ZM26.1436 8.13311H18.7178V9.26576H20.6169V11.1179H18.7178V12.1764H20.6169V14.0285H18.7178V15.0869H20.6169V16.9392H18.7178V17.9975H20.6169V19.8498H18.7178V20.9081H20.6169V22.7604H18.7178V23.984H26.1436V8.13311Z" fill="white"/>
</svg>
