<svg width="32" height="32" viewBox="0 0 32 32" fill="none" xmlns="http://www.w3.org/2000/svg">
<g clip-path="url(#clip0_260_5596)">
<path d="M28.3467 17.0905H23.2575V14.5458H28.3467V17.0905ZM28.3467 18.5445H23.2575V21.0891H28.3467V18.5445ZM28.3467 6.54858H23.2575V9.09315H28.3467V6.54858ZM28.3467 10.5472H23.2575V13.0918H28.3467V10.5472ZM28.3467 22.5431H23.2575V25.0877H28.3467V22.543V22.5431ZM31.8618 27.5596C31.7164 28.3157 30.8076 28.3338 30.2006 28.3593H18.8954V31.6309H16.6379L0 28.7228V3.28065L16.7361 0.368896H18.8954V3.26608H29.8116C30.426 3.29152 31.1021 3.2479 31.6364 3.61502C32.0109 4.15302 31.9746 4.83646 32 5.4544L31.9854 24.3788C31.9673 25.4366 32.0836 26.5163 31.8618 27.5596ZM13.3299 21.8561C12.3267 19.8205 11.3053 17.7993 10.3056 15.7636C11.2943 13.7825 12.2686 11.7941 13.2391 9.80565C12.4139 9.84565 11.5887 9.89652 10.7673 9.95471C10.1529 11.4487 9.43675 12.9028 8.95694 14.4477C8.50981 12.99 7.91731 11.5868 7.37569 10.1655C6.57594 10.2091 5.77619 10.2564 4.9765 10.3036C5.81981 12.1649 6.71775 14.0005 7.53562 15.8726C6.57231 17.6902 5.67081 19.5333 4.73656 21.3617C5.53263 21.3944 6.32875 21.4271 7.12481 21.438C7.69194 19.9913 8.39713 18.599 8.8915 17.1231C9.335 18.7081 10.0874 20.173 10.7054 21.6888C11.5815 21.7507 12.4539 21.8052 13.3299 21.8561ZM30.2663 4.99252H18.8954V6.54858H21.8035V9.09315H18.8954V10.5472H21.8035V13.0918H18.8954V14.5458H21.8035V17.0905H18.8954V18.5445H21.8035V21.0891H18.8954V22.5431H21.8035V25.0877H18.8954V26.7688H30.2663V4.99252Z" fill="black"/>
</g>
<defs>
<clipPath id="clip0_260_5596">
<rect width="32" height="32" fill="white"/>
</clipPath>
</defs>
</svg>
