<svg width="32" height="32" viewBox="0 0 32 32" fill="none" xmlns="http://www.w3.org/2000/svg">
<path d="M24.3897 16.4382H21.0661V14.586H24.3897V16.4382ZM24.3897 17.4966H21.0661V19.3488H24.3897V17.4966ZM24.3897 8.76479H21.0661V10.617H24.3897V8.76479ZM24.3897 11.6754H21.0661V13.5276H24.3897V11.6754ZM24.3897 20.4072H21.0661V22.2594H24.3897V20.4071V20.4072ZM26.6853 24.0587C26.5903 24.609 25.9968 24.6222 25.6004 24.6408H18.2174V27.0222H16.7432L5.87756 24.9053V6.38606L16.8073 4.2666H18.2174V6.37546H25.3464C25.7476 6.39398 26.1892 6.36222 26.5381 6.62945C26.7826 7.02106 26.7589 7.51853 26.7755 7.96833L26.766 21.7434C26.7542 22.5134 26.8301 23.2993 26.6853 24.0587ZM14.5828 19.9071C13.9276 18.4254 13.2606 16.9541 12.6077 15.4724C13.2534 14.0303 13.8897 12.583 14.5235 11.1356C13.9846 11.1647 13.4457 11.2017 12.9092 11.2441C12.508 12.3316 12.0403 13.39 11.727 14.5145C11.435 13.4535 11.0481 12.4321 10.6943 11.3975C10.1721 11.4293 9.64977 11.4637 9.12752 11.4981C9.67826 12.8529 10.2647 14.189 10.7988 15.5518C10.1697 16.8748 9.58095 18.2163 8.97083 19.5472C9.49071 19.571 10.0106 19.5949 10.5305 19.6028C10.9009 18.5497 11.3614 17.5363 11.6843 16.462C11.9739 17.6157 12.4653 18.682 12.8689 19.7853C13.441 19.8304 14.0107 19.8701 14.5828 19.9071ZM25.6433 7.63213H18.2174V8.76479H20.1166V10.617H18.2174V11.6754H20.1166V13.5276H18.2174V14.586H20.1166V16.4382H18.2174V17.4966H20.1166V19.3488H18.2174V20.4072H20.1166V22.2594H18.2174V23.483H25.6433V7.63213Z" fill="#003C96"/>
</svg>
