<svg width="33" height="32" viewBox="0 0 33 32" fill="none" xmlns="http://www.w3.org/2000/svg">
<path d="M11.3267 12.3867L16.5 17.56L21.6734 12.3867C21.7968 12.2632 21.9434 12.1653 22.1047 12.0985C22.2659 12.0317 22.4388 11.9973 22.6134 11.9973C22.788 11.9973 22.9608 12.0317 23.1221 12.0985C23.2834 12.1653 23.4299 12.2632 23.5534 12.3867C23.6768 12.5101 23.7747 12.6567 23.8416 12.818C23.9084 12.9792 23.9427 13.1521 23.9427 13.3267C23.9427 13.5012 23.9084 13.6741 23.8416 13.8354C23.7747 13.9967 23.6768 14.1432 23.5534 14.2667L17.4334 20.3867C17.31 20.5103 17.1635 20.6083 17.0022 20.6753C16.8409 20.7422 16.668 20.7766 16.4934 20.7766C16.3188 20.7766 16.1458 20.7422 15.9845 20.6753C15.8233 20.6083 15.6767 20.5103 15.5534 20.3867L9.43338 14.2667C9.30978 14.1433 9.21171 13.9968 9.14481 13.8355C9.0779 13.6742 9.04346 13.5013 9.04346 13.3267C9.04346 13.1521 9.0779 12.9791 9.14481 12.8178C9.21171 12.6565 9.30978 12.51 9.43338 12.3867C9.95338 11.88 10.8067 11.8667 11.3267 12.3867Z" fill="#003C96"/>
</svg>
