<svg width="32" height="32" viewBox="0 0 32 32" fill="none" xmlns="http://www.w3.org/2000/svg">
<path d="M3 5.67742C3 5.12514 3.44772 4.67742 4 4.67742H28C28.5523 4.67742 29 5.12513 29 5.67742V28C29 28.5523 28.5523 29 28 29H4C3.44772 29 3 28.5523 3 28V5.67742Z" fill="#003C96"/>
<path d="M4.7931 6.35484H27.2069V27.3226H4.7931V6.35484Z" fill="white"/>
<path d="M4.7931 11.3871H27.2069V13.0645H4.7931V11.3871Z" fill="#003C96"/>
<path d="M8.37931 3.5C8.37931 3.22386 8.60317 3 8.87931 3H9.67241C9.94856 3 10.1724 3.22386 10.1724 3.5V7.53226C10.1724 7.8084 9.94856 8.03226 9.67241 8.03226H8.87931C8.60317 8.03226 8.37931 7.8084 8.37931 7.53226V3.5Z" fill="#003C96"/>
<path d="M21.8276 3.5C21.8276 3.22386 22.0514 3 22.3276 3H23.1207C23.3968 3 23.6207 3.22386 23.6207 3.5V7.53226C23.6207 7.8084 23.3968 8.03226 23.1207 8.03226H22.3276C22.0514 8.03226 21.8276 7.8084 21.8276 7.53226V3.5Z" fill="#003C96"/>
</svg>
