<svg width="298" height="103" viewBox="0 0 298 103" fill="none" xmlns="http://www.w3.org/2000/svg">
<path d="M17.3916 60.5938C21.6277 70.4294 31.4908 77.3259 42.9888 77.3259C38.7527 67.4903 28.8843 60.5938 17.3916 60.5938Z" fill="#3EAE64"/>
<path d="M63.8454 42.9536C63.8454 54.3428 54.5079 63.5749 42.9886 63.5749C31.4694 63.5749 22.1318 54.3428 22.1318 42.9536C22.1318 31.5644 31.4694 22.3323 42.9886 22.3323C54.5079 22.3323 63.8454 31.5644 63.8454 42.9536Z" fill="#FBB911"/>
<path d="M42.9883 77.3259C51.434 77.3259 58.7012 72.3661 61.9818 65.2281C53.5414 65.2281 46.2689 70.188 42.9883 77.3259Z" fill="#3EAE64"/>
<path d="M53.4197 42.9536C53.4197 48.6483 48.7483 53.2669 42.9887 53.2669C37.229 53.2669 32.5576 48.6483 32.5576 42.9536C32.5576 37.259 37.229 32.6404 42.9887 32.6404C48.7483 32.6404 53.4197 37.259 53.4197 42.9536Z" fill="#184190"/>
<path d="M138.524 53.5241C138.524 50.9313 135.928 49.7714 133.019 49.7714C128.576 49.7714 124.733 51.6241 123.56 56.395C132.611 58.9825 138.524 57.0563 138.524 53.5241ZM123.369 61.9269C124.308 67.6373 128.884 69.5005 133.529 69.5005C136.603 69.5005 139.83 68.3143 141.815 66.5351L147.198 71.8885C143.981 75.4103 139.512 77.326 133.396 77.326C124.834 77.326 114.509 72.3294 114.509 59.6701C114.509 47.0107 124.452 42.0142 132.897 42.0142C143.578 42.0142 148 46.974 148 52.5374C148 61.633 136.311 65.837 123.369 61.9269ZM81.3524 42.9536L81.0923 55.5133C81.0286 60.599 80.8428 63.1078 80.0996 65.9892C79.4202 68.7447 78.1196 69.5267 76.0706 69.5267C75.3911 69.5267 74.77 69.4637 74.271 69.28V76.3865C74.9505 76.7539 76.0705 76.9376 77.5569 76.9376C83.6934 76.7539 86.6662 73.8934 88.1525 68.7447C89.2036 65.0707 89.3894 62.2523 89.5752 58.022L89.7716 51.241H100.606V76.3865H109.328V42.9536H81.3524ZM249.253 59.6701C249.253 56.9303 248.371 54.6578 246.545 52.9153C244.788 51.1098 242.553 50.2385 239.851 50.2385C237.144 50.2385 234.915 51.1098 233.158 52.9153C231.4 54.6525 230.519 56.9303 230.519 59.6701C230.519 62.4098 231.4 64.6824 233.158 66.4931C234.915 68.2303 237.149 69.1016 239.851 69.1016C242.559 69.1016 244.788 68.2303 246.545 66.4931C248.371 64.6876 249.253 62.415 249.253 59.6701ZM262.64 69.1173V76.2238C261.154 76.9586 259.296 77.326 257.125 77.326C252.592 77.326 250.309 75.3735 249.396 72.2349L249.253 72.4449C246.614 75.7199 242.962 77.326 238.227 77.326C233.694 77.326 229.84 75.6569 226.591 72.2454C223.411 68.8339 221.787 64.6246 221.787 59.6753C221.787 54.726 223.411 50.5797 226.591 47.1682C229.84 43.7567 233.694 42.0194 238.227 42.0194C242.755 42.0194 246.291 43.489 248.897 46.4859V42.9589H257.624V66.6086C257.624 68.6292 258.553 69.6737 260.411 69.6737C261.276 69.6684 262.019 69.4847 262.64 69.1173ZM190.016 51.2462H200.877V76.3917H209.604V51.2462H220.332V42.9536H190.016V51.2462ZM177.185 42.9536H185.913V76.3865H177.185V63.365H161.95V76.3865H153.223V42.9536H161.95V55.2771H177.185V42.9536Z" fill="white"/>
</svg>
