<svg width="32" height="32" viewBox="0 0 32 32" fill="none" xmlns="http://www.w3.org/2000/svg">
<rect x="12" y="21" width="8" height="7" fill="#003C96"/>
<path d="M4 4C4 3.44772 4.44772 3 5 3H27C27.5523 3 28 3.44772 28 4V28C28 28.5523 27.5523 29 27 29H5C4.44772 29 4 28.5523 4 28V4Z" fill="#003C96"/>
<path d="M5.65517 4.7931H26.3448V27.2069H5.65517V4.7931Z" fill="white"/>
<path d="M10 18.5C10 18.2239 10.2239 18 10.5 18H21.5C21.7761 18 22 18.2239 22 18.5V28.5C22 28.7761 21.7761 29 21.5 29H10.5C10.2239 29 10 28.7761 10 28.5V18.5Z" fill="#003C96"/>
<path d="M12 20.5C12 20.2239 12.2239 20 12.5 20H19.5C19.7761 20 20 20.2239 20 20.5V28.5C20 28.7761 19.7762 29 19.5 29C19.3123 29 19.1164 29 19 29H14C13.8207 29 13.0315 29 12.4997 29C12.2236 29 12 28.7761 12 28.5V20.5Z" fill="#003C96"/>
<path d="M3 8.5C3 8.22386 3.22386 8 3.5 8H28.5C28.7761 8 29 8.22386 29 8.5V14.5C29 14.7761 28.7761 15 28.5 15H3.5C3.22386 15 3 14.7761 3 14.5V8.5Z" fill="#003C96"/>
</svg>
