<svg width="32" height="32" viewBox="0 0 32 32" fill="none" xmlns="http://www.w3.org/2000/svg">
<path d="M28.5 6H10.25C10.1125 6 10 6.1125 10 6.25V8C10 8.1375 10.1125 8.25 10.25 8.25H28.5C28.6375 8.25 28.75 8.1375 28.75 8V6.25C28.75 6.1125 28.6375 6 28.5 6ZM28.5 14.875H10.25C10.1125 14.875 10 14.9875 10 15.125V16.875C10 17.0125 10.1125 17.125 10.25 17.125H28.5C28.6375 17.125 28.75 17.0125 28.75 16.875V15.125C28.75 14.9875 28.6375 14.875 28.5 14.875ZM28.5 23.75H10.25C10.1125 23.75 10 23.8625 10 24V25.75C10 25.8875 10.1125 26 10.25 26H28.5C28.6375 26 28.75 25.8875 28.75 25.75V24C28.75 23.8625 28.6375 23.75 28.5 23.75ZM3.25 7.125C3.25 7.35481 3.29527 7.58238 3.38321 7.7947C3.47116 8.00702 3.60006 8.19993 3.76256 8.36244C3.92507 8.52494 4.11798 8.65384 4.3303 8.74179C4.54262 8.82973 4.77019 8.875 5 8.875C5.22981 8.875 5.45738 8.82973 5.6697 8.74179C5.88202 8.65384 6.07493 8.52494 6.23744 8.36244C6.39994 8.19993 6.52884 8.00702 6.61679 7.7947C6.70474 7.58238 6.75 7.35481 6.75 7.125C6.75 6.89519 6.70474 6.66762 6.61679 6.4553C6.52884 6.24298 6.39994 6.05007 6.23744 5.88756C6.07493 5.72506 5.88202 5.59616 5.6697 5.50821C5.45738 5.42026 5.22981 5.375 5 5.375C4.77019 5.375 4.54262 5.42026 4.3303 5.50821C4.11798 5.59616 3.92507 5.72506 3.76256 5.88756C3.60006 6.05007 3.47116 6.24298 3.38321 6.4553C3.29527 6.66762 3.25 6.89519 3.25 7.125ZM3.25 16C3.25 16.2298 3.29527 16.4574 3.38321 16.6697C3.47116 16.882 3.60006 17.0749 3.76256 17.2374C3.92507 17.3999 4.11798 17.5288 4.3303 17.6168C4.54262 17.7047 4.77019 17.75 5 17.75C5.22981 17.75 5.45738 17.7047 5.6697 17.6168C5.88202 17.5288 6.07493 17.3999 6.23744 17.2374C6.39994 17.0749 6.52884 16.882 6.61679 16.6697C6.70474 16.4574 6.75 16.2298 6.75 16C6.75 15.7702 6.70474 15.5426 6.61679 15.3303C6.52884 15.118 6.39994 14.9251 6.23744 14.7626C6.07493 14.6001 5.88202 14.4712 5.6697 14.3832C5.45738 14.2953 5.22981 14.25 5 14.25C4.77019 14.25 4.54262 14.2953 4.3303 14.3832C4.11798 14.4712 3.92507 14.6001 3.76256 14.7626C3.60006 14.9251 3.47116 15.118 3.38321 15.3303C3.29527 15.5426 3.25 15.7702 3.25 16ZM3.25 24.875C3.25 25.1048 3.29527 25.3324 3.38321 25.5447C3.47116 25.757 3.60006 25.9499 3.76256 26.1124C3.92507 26.2749 4.11798 26.4038 4.3303 26.4918C4.54262 26.5797 4.77019 26.625 5 26.625C5.22981 26.625 5.45738 26.5797 5.6697 26.4918C5.88202 26.4038 6.07493 26.2749 6.23744 26.1124C6.39994 25.9499 6.52884 25.757 6.61679 25.5447C6.70474 25.3324 6.75 25.1048 6.75 24.875C6.75 24.6452 6.70474 24.4176 6.61679 24.2053C6.52884 23.993 6.39994 23.8001 6.23744 23.6376C6.07493 23.4751 5.88202 23.3462 5.6697 23.2582C5.45738 23.1703 5.22981 23.125 5 23.125C4.77019 23.125 4.54262 23.1703 4.3303 23.2582C4.11798 23.3462 3.92507 23.4751 3.76256 23.6376C3.60006 23.8001 3.47116 23.993 3.38321 24.2053C3.29527 24.4176 3.25 24.6452 3.25 24.875Z" fill="#003C96"/>
</svg>
